<svg width="82" height="75" viewBox="0 0 82 75" fill="none" xmlns="http://www.w3.org/2000/svg">
<path d="M81 -6H1V74H81V-6Z" fill="#F9FAFB"/>
<g opacity="0.1">
<path opacity="0.1" d="M80.9937 72.1122V74H79.1059" stroke="#20263C" stroke-miterlimit="10"/>
<path opacity="0.1" d="M75.4749 74H4.70007" stroke="#20263C" stroke-miterlimit="10" stroke-dasharray="5.77 5.77"/>
<path opacity="0.1" d="M2.88783 74H1V72.1122" stroke="#20263C" stroke-miterlimit="10"/>
<path opacity="0.1" d="M1 68.4811V-2.29358" stroke="#20263C" stroke-miterlimit="10" stroke-dasharray="5.77 5.77"/>
<path opacity="0.1" d="M80.9937 -0.481323V70.2935" stroke="#20263C" stroke-miterlimit="10" stroke-dasharray="5.77 5.77"/>
</g>
<path d="M53.5821 15.0807H49.7187C48.5266 15.0807 47.5601 16.0471 47.5601 17.2392V21.1027C47.5601 22.2948 48.5266 23.2613 49.7187 23.2613H53.5821C54.7743 23.2613 55.7407 22.2948 55.7407 21.1027V17.2392C55.7407 16.0471 54.7743 15.0807 53.5821 15.0807Z" fill="#B72136"/>
<path d="M38.4526 23.4915H41.8452C43.2491 23.5713 44.5845 24.1244 45.6337 25.0606L45.7609 25.202C46.702 26.2481 47.2558 27.5853 47.3299 28.9905V32.3689C47.3299 32.9575 47.5638 33.522 47.98 33.9382C48.3962 34.3544 48.9607 34.5883 49.5493 34.5883H53.5215C54.1101 34.5883 54.6746 34.3544 55.0908 33.9382C55.507 33.522 55.7409 32.9575 55.7409 32.3689V28.3968C55.7409 27.8081 55.507 27.2437 55.0908 26.8275C54.6746 26.4113 54.1101 26.1774 53.5215 26.1774H50.143C48.7379 26.1032 47.4007 25.5494 46.3546 24.6083L46.2132 24.4811C45.2751 23.4331 44.7217 22.0971 44.6441 20.6926V17.3C44.6441 16.7115 44.4104 16.1469 43.9941 15.7307C43.5779 15.3145 43.0134 15.0807 42.4248 15.0807H38.4526C37.864 15.0807 37.2995 15.3145 36.8833 15.7307C36.4671 16.1469 36.2333 16.7115 36.2333 17.3V21.2723C36.2333 21.8608 36.4671 22.4253 36.8833 22.8415C37.2995 23.2577 37.864 23.4915 38.4526 23.4915Z" fill="#D1E9FC"/>
<path d="M54.1576 37.3993H50.7968C49.3979 37.3085 48.0724 36.7281 47.044 35.7561L46.666 35.3703C45.7337 34.3129 45.1851 32.9612 45.1116 31.5409V28.1116C45.1079 27.5178 44.8752 26.9494 44.4637 26.5294C44.0521 26.1095 43.4951 25.872 42.9131 25.8683H39.5524C38.165 25.8087 36.8399 25.2638 35.7997 24.3251L35.4216 23.9393C34.4893 22.8819 33.9407 21.5302 33.8672 20.1099V16.6949C33.8672 16.0999 33.6356 15.5293 33.2233 15.1086C32.811 14.6879 32.2519 14.4515 31.6688 14.4515H27.7339C27.1509 14.4515 26.5916 14.6879 26.1794 15.1086C25.7671 15.5293 25.5355 16.0999 25.5355 16.6949V20.71C25.5355 21.305 25.7671 21.8756 26.1794 22.2963C26.5916 22.717 27.1509 22.9534 27.7339 22.9534H31.0806C32.4938 23.0193 33.8405 23.5851 34.8895 24.5537L35.2675 24.9395C36.1969 25.9988 36.745 27.3493 36.8219 28.7688V32.1982C36.8255 32.792 37.0583 33.3604 37.4698 33.7803C37.8813 34.2002 38.4384 34.4378 39.0203 34.4415H42.381C43.7576 34.5294 45.0648 35.0882 46.0919 36.0276L46.4699 36.4134C47.3993 37.4726 47.9474 38.8232 48.0243 40.2428V43.6721C48.0279 44.2659 48.2607 44.8343 48.6722 45.2542C49.0837 45.6741 49.6408 45.9116 50.2227 45.9154H54.1715C54.7535 45.9116 55.3106 45.6741 55.7221 45.2542C56.1336 44.8343 56.3664 44.2659 56.37 43.6721V39.6426C56.3663 39.0464 56.1316 38.4758 55.7171 38.0555C55.3026 37.6352 54.7419 37.3993 54.1576 37.3993Z" fill="#2065D1"/>
<path d="M54.1576 37.3993H50.7968C49.3979 37.3085 48.0724 36.7281 47.044 35.7561L46.666 35.3703C45.7337 34.3129 45.1851 32.9612 45.1116 31.5409V28.1116C45.1079 27.5178 44.8752 26.9494 44.4637 26.5294C44.0521 26.1095 43.4951 25.872 42.9131 25.8683H39.5524C38.165 25.8087 36.8399 25.2638 35.7997 24.3251L35.4216 23.9393C34.4893 22.8819 33.9407 21.5302 33.8672 20.1099V16.6949C33.8672 16.0999 33.6356 15.5293 33.2233 15.1086C32.811 14.6879 32.2519 14.4515 31.6688 14.4515H27.7339C27.1509 14.4515 26.5916 14.6879 26.1794 15.1086C25.7671 15.5293 25.5355 16.0999 25.5355 16.6949V20.71C25.5355 21.305 25.7671 21.8756 26.1794 22.2963C26.5916 22.717 27.1509 22.9534 27.7339 22.9534H31.0806C32.4938 23.0193 33.8405 23.5851 34.8895 24.5537L35.2675 24.9395C36.1969 25.9988 36.745 27.3493 36.8219 28.7688V32.1982C36.8255 32.792 37.0583 33.3604 37.4698 33.7803C37.8813 34.2002 38.4384 34.4378 39.0203 34.4415H42.381C43.7576 34.5294 45.0648 35.0882 46.0919 36.0276L46.4699 36.4134C47.3993 37.4726 47.9474 38.8232 48.0243 40.2428V43.6721C48.0279 44.2659 48.2607 44.8343 48.6722 45.2542C49.0837 45.6741 49.6408 45.9116 50.2227 45.9154H54.1715C54.7535 45.9116 55.3106 45.6741 55.7221 45.2542C56.1336 44.8343 56.3664 44.2659 56.37 43.6721V39.6426C56.3663 39.0464 56.1316 38.4758 55.7171 38.0555C55.3026 37.6352 54.7419 37.3993 54.1576 37.3993Z" fill="black" fill-opacity="0.2"/>
<path d="M32.0207 37.1055H27.8601C26.5762 37.1055 25.5355 38.0719 25.5355 39.2641V43.1275C25.5355 44.3197 26.5762 45.2861 27.8601 45.2861H32.0207C33.3046 45.2861 34.3453 44.3197 34.3453 43.1275V39.2641C34.3453 38.0719 33.3046 37.1055 32.0207 37.1055Z" fill="#B72136"/>
<path d="M42.8237 36.8752H39.4452C38.0401 36.801 36.7029 36.2473 35.6568 35.3062L35.5154 35.179C34.5713 34.1236 34.0175 32.7765 33.9463 31.3623V27.9696C33.9393 27.398 33.712 26.8511 33.3118 26.4429C32.9115 26.0347 32.3691 25.7968 31.7976 25.7786H27.7548C27.1662 25.7786 26.6017 26.0124 26.1855 26.4286C25.7693 26.8448 25.5355 27.4093 25.5355 27.9979V31.9701C25.5355 32.5587 25.7693 33.1232 26.1855 33.5394C26.6017 33.9556 27.1662 34.1894 27.7548 34.1894H31.1474C32.5513 34.2692 33.8867 34.8223 34.9359 35.7585L35.0631 35.8999C36.0042 36.946 36.558 38.2832 36.6321 39.6883V43.0668C36.6321 43.3594 36.69 43.6492 36.8024 43.9193C36.9149 44.1895 37.0796 44.4348 37.2872 44.6411C37.4947 44.8474 37.7411 45.0105 38.012 45.1212C38.2829 45.2319 38.573 45.288 38.8656 45.2861H42.8237C43.4123 45.2861 43.9768 45.0523 44.393 44.6361C44.8092 44.2199 45.043 43.6554 45.043 43.0668V39.0946C45.043 38.506 44.8092 37.9415 44.393 37.5253C43.9768 37.1091 43.4123 36.8752 42.8237 36.8752Z" fill="#D1E9FC"/>
</svg>
